<svg id="Icons" height="512" viewBox="0 0 74 74" width="512" xmlns="http://www.w3.org/2000/svg"><path d="m27.607 53.2a25.595 25.595 0 0 1 -18.107-43.7 25.606 25.606 0 1 1 18.107 43.7zm-16.693-42.286a23.607 23.607 0 1 0 33.385 0 23.634 23.634 0 0 0 -33.385 0z"/><path d="m30.231 10.81a.975.975 0 0 1 -.141-.01 18.48 18.48 0 0 0 -2.535-.18c-.11 0-.22 0-.33.008a1.011 1.011 0 0 1 -1.063-.928 1 1 0 0 1 .938-1.068 16.014 16.014 0 0 1 3.275.188 1 1 0 0 1 -.139 1.99z"/><path d="m27.61 46.59a18.976 18.976 0 0 1 -9.49-35.416 1 1 0 0 1 1 1.732 16.979 16.979 0 1 0 25.47 14.704 16.839 16.839 0 0 0 -1.35-6.638 1 1 0 0 1 1.84-.784 18.983 18.983 0 0 1 -17.47 26.4z"/><path d="m39.3 14.96a.992.992 0 0 1 -.655-.246 15.867 15.867 0 0 0 -2.333-1.683 1 1 0 0 1 1.018-1.722 17.783 17.783 0 0 1 2.627 1.9 1 1 0 0 1 -.657 1.751z"/><path d="m63.4 72q-.12 0-.24 0a8.534 8.534 0 0 1 -6.175-2.855l-17.685-19.711a1 1 0 0 1 1.485-1.334l17.689 19.706a6.608 6.608 0 1 0 9.332-9.332l-19.706-17.689a1 1 0 1 1 1.334-1.485l19.708 17.685a8.608 8.608 0 0 1 -5.742 15.015z"/></svg>